<svg width="64" height="64" viewBox="0 0 64 64" fill="none" xmlns="http://www.w3.org/2000/svg">
  <!-- Monochrome version for dark/light theme compatibility -->
  
  <!-- Heart shape with pulse line integrated -->
  <path d="M32 54C32 54 8 38 8 22C8 15.5 12.5 10 18 10C22 10 25.5 12 27.5 15C28.5 16.5 30 18 32 18C34 18 35.5 16.5 36.5 15C38.5 12 42 10 46 10C51.5 10 56 15.5 56 22C56 38 32 54 32 54Z" fill="currentColor"/>
  
  <!-- Heartbeat pulse line -->
  <path d="M16 28 L22 28 L25 22 L28 34 L31 28 L34 28 L37 22 L40 34 L43 28 L48 28" 
        stroke="white" 
        stroke-width="2.5" 
        stroke-linecap="round" 
        stroke-linejoin="round" 
        fill="none"
        opacity="0.95"/>
  
  <!-- Pulse dot -->
  <circle cx="32" cy="28" r="2" fill="white" opacity="0.9"/>
</svg>
