<svg width="32" height="32" viewBox="0 0 32 32" fill="none" xmlns="http://www.w3.org/2000/svg">
  <defs>
    <linearGradient id="heartGradient" x1="0%" y1="0%" x2="100%" y2="100%">
      <stop offset="0%" style="stop-color:#ff4757;stop-opacity:1" />
      <stop offset="100%" style="stop-color:#ff6b81;stop-opacity:1" />
    </linearGradient>
  </defs>
  
  <!-- Simplified heart for favicon -->
  <path d="M16 28C16 28 4 20 4 11.5C4 8.5 6.5 6 9 6C11 6 12.5 7 13.5 8.5C14 9 15 9.5 16 9.5C17 9.5 18 9 18.5 8.5C19.5 7 21 6 23 6C25.5 6 28 8.5 28 11.5C28 20 16 28 16 28Z" fill="url(#heartGradient)"/>
  
  <!-- Simplified pulse -->
  <path d="M8 14 L11 14 L12.5 11 L14 17 L15.5 14 L17 14 L18.5 11 L20 17 L21.5 14 L24 14" 
        stroke="white" 
        stroke-width="2" 
        stroke-linecap="round" 
        stroke-linejoin="round" 
        fill="none"
        opacity="0.95"/>
</svg>
