<svg width="64" height="64" viewBox="0 0 64 64" fill="none" xmlns="http://www.w3.org/2000/svg">
  <defs>
    <linearGradient id="heartGradient" x1="0%" y1="0%" x2="100%" y2="100%">
      <stop offset="0%" style="stop-color:#ff4757;stop-opacity:1" />
      <stop offset="100%" style="stop-color:#ff6b81;stop-opacity:1" />
    </linearGradient>
  </defs>
  
  <!-- Heart shape with pulse animation -->
  <path d="M32 54C32 54 8 38 8 22C8 15.5 12.5 10 18 10C22 10 25.5 12 27.5 15C28.5 16.5 30 18 32 18C34 18 35.5 16.5 36.5 15C38.5 12 42 10 46 10C51.5 10 56 15.5 56 22C56 38 32 54 32 54Z" fill="url(#heartGradient)">
    <animate attributeName="opacity" values="1;0.85;1" dur="1.2s" repeatCount="indefinite"/>
  </path>
  
  <!-- Heartbeat pulse line -->
  <path d="M16 28 L22 28 L25 22 L28 34 L31 28 L34 28 L37 22 L40 34 L43 28 L48 28" 
        stroke="white" 
        stroke-width="2.5" 
        stroke-linecap="round" 
        stroke-linejoin="round" 
        fill="none"
        opacity="0.95">
    <animate attributeName="stroke-dasharray" values="0 100; 100 0" dur="2s" repeatCount="indefinite"/>
  </path>
  
  <!-- Animated pulse dot -->
  <circle cx="32" cy="28" r="2" fill="white" opacity="0.9">
    <animate attributeName="r" values="2;3;2" dur="1.2s" repeatCount="indefinite"/>
    <animate attributeName="opacity" values="0.9;1;0.9" dur="1.2s" repeatCount="indefinite"/>
  </circle>
  
  <!-- Pulse ripple effect -->
  <circle cx="32" cy="28" r="4" fill="none" stroke="white" stroke-width="1">
    <animate attributeName="r" values="4;12;4" dur="1.2s" repeatCount="indefinite"/>
    <animate attributeName="opacity" values="0.6;0;0.6" dur="1.2s" repeatCount="indefinite"/>
  </circle>
</svg>
